<svg width="115" height="24" viewBox="0 0 115 24" fill="none" xmlns="http://www.w3.org/2000/svg">
<path d="M21.25 6.90625L11.125 1L1 6.90625M21.25 6.90625L11.125 12.8125M21.25 6.90625V17.0312L11.125 22.9375M1 6.90625L11.125 12.8125M1 6.90625V17.0312L11.125 22.9375M11.125 12.8125V22.9375" stroke="#01A578" stroke-width="1.5" stroke-linecap="round" stroke-linejoin="round"/>
<path d="M36.7102 11.5455H34.3068C34.2898 11.3466 34.2443 11.1662 34.1705 11.0043C34.0994 10.8423 34 10.7031 33.8722 10.5866C33.7472 10.4673 33.5952 10.3764 33.4162 10.3139C33.2372 10.2486 33.0341 10.2159 32.8068 10.2159C32.4091 10.2159 32.0724 10.3125 31.7969 10.5057C31.5241 10.6989 31.3168 10.9759 31.1747 11.3366C31.0355 11.6974 30.9659 12.1307 30.9659 12.6364C30.9659 13.1705 31.0369 13.6179 31.179 13.9787C31.3239 14.3366 31.5327 14.6065 31.8054 14.7884C32.0781 14.9673 32.4063 15.0568 32.7898 15.0568C33.0085 15.0568 33.2045 15.0298 33.3778 14.9759C33.5511 14.919 33.7017 14.8381 33.8295 14.733C33.9574 14.6278 34.0611 14.5014 34.1406 14.3537C34.223 14.2031 34.2784 14.0341 34.3068 13.8466L36.7102 13.8636C36.6818 14.233 36.5781 14.6094 36.3991 14.9929C36.2202 15.3736 35.9659 15.7259 35.6364 16.0497C35.3097 16.3707 34.9048 16.6293 34.4219 16.8253C33.9389 17.0213 33.3778 17.1193 32.7386 17.1193C31.9375 17.1193 31.2188 16.9474 30.5824 16.6037C29.9489 16.2599 29.4474 15.7543 29.0781 15.0866C28.7116 14.419 28.5284 13.6023 28.5284 12.6364C28.5284 11.6648 28.7159 10.8466 29.0909 10.1818C29.4659 9.5142 29.9716 9.00994 30.608 8.66903C31.2443 8.32528 31.9545 8.15341 32.7386 8.15341C33.2898 8.15341 33.7969 8.22869 34.2599 8.37926C34.723 8.52983 35.1293 8.75 35.4787 9.03977C35.8281 9.3267 36.1094 9.6804 36.3224 10.1009C36.5355 10.5213 36.6648 11.0028 36.7102 11.5455ZM42.0636 14.1364V10.4545H44.4158V17H42.1829V15.7557H42.1147C41.9727 16.1733 41.7241 16.5 41.369 16.7358C41.0138 16.9687 40.592 17.0852 40.1033 17.0852C39.646 17.0852 39.2454 16.9801 38.9016 16.7699C38.5607 16.5597 38.2951 16.2699 38.1048 15.9006C37.9173 15.5312 37.8221 15.108 37.8192 14.6307V10.4545H40.1715V14.1364C40.1744 14.4602 40.2567 14.7145 40.4187 14.8991C40.5835 15.0838 40.8136 15.1761 41.109 15.1761C41.305 15.1761 41.4741 15.1349 41.6161 15.0526C41.761 14.9673 41.8718 14.848 41.9485 14.6946C42.0281 14.5384 42.0664 14.3523 42.0636 14.1364ZM51.5952 12.5852H49.4304C49.419 12.4517 49.3722 12.3366 49.2898 12.2401C49.2074 12.1435 49.1009 12.0696 48.9702 12.0185C48.8423 11.9645 48.7003 11.9375 48.544 11.9375C48.3423 11.9375 48.169 11.9744 48.0241 12.0483C47.8793 12.1222 47.8082 12.2273 47.8111 12.3636C47.8082 12.4602 47.8494 12.5497 47.9347 12.6321C48.0227 12.7145 48.1918 12.7784 48.4418 12.8239L49.7713 13.0625C50.4418 13.1847 50.9403 13.3906 51.267 13.6804C51.5966 13.9673 51.7628 14.3523 51.7656 14.8352C51.7628 15.3011 51.6236 15.706 51.348 16.0497C51.0753 16.3906 50.7017 16.6548 50.2273 16.8423C49.7557 17.027 49.2173 17.1193 48.6122 17.1193C47.6122 17.1193 46.8295 16.9148 46.2642 16.5057C45.7017 16.0966 45.3878 15.5568 45.3224 14.8864H47.6577C47.6889 15.0937 47.7912 15.2543 47.9645 15.3679C48.1406 15.4787 48.3622 15.5341 48.6293 15.5341C48.8452 15.5341 49.0227 15.4972 49.1619 15.4233C49.304 15.3494 49.3764 15.2443 49.3793 15.108C49.3764 14.983 49.3139 14.8835 49.1918 14.8097C49.0724 14.7358 48.8849 14.6761 48.6293 14.6307L47.4702 14.4261C46.8026 14.3097 46.3026 14.0881 45.9702 13.7614C45.6378 13.4347 45.473 13.0142 45.4759 12.5C45.473 12.0455 45.5923 11.6605 45.8338 11.3452C46.0781 11.027 46.4261 10.7855 46.8778 10.6207C47.3324 10.4531 47.8707 10.3693 48.4929 10.3693C49.4389 10.3693 50.1847 10.5653 50.7301 10.9574C51.2784 11.3494 51.5668 11.892 51.5952 12.5852ZM56.5703 10.4545V12.1591H52.2578V10.4545H56.5703ZM53.093 8.88636H55.4453V14.8949C55.4453 14.9858 55.4609 15.0625 55.4922 15.125C55.5234 15.1847 55.5717 15.2301 55.6371 15.2614C55.7024 15.2898 55.7862 15.304 55.8885 15.304C55.9595 15.304 56.0419 15.2955 56.1357 15.2784C56.2322 15.2614 56.3033 15.2472 56.3487 15.2358L56.6896 16.8892C56.5845 16.9205 56.4339 16.9588 56.2379 17.0043C56.0447 17.0497 55.8146 17.0795 55.5476 17.0938C55.0078 17.1222 54.5547 17.0668 54.1882 16.9276C53.8217 16.7855 53.5462 16.5625 53.3615 16.2585C53.1768 15.9545 53.0874 15.5739 53.093 15.1165V8.88636ZM60.6133 17.1193C59.9031 17.1193 59.2951 16.9787 58.7894 16.6974C58.2837 16.4134 57.896 16.0185 57.6261 15.5128C57.3562 15.0043 57.2212 14.4148 57.2212 13.7443C57.2212 13.0739 57.3562 12.4858 57.6261 11.9801C57.896 11.4716 58.2837 11.0767 58.7894 10.7955C59.2951 10.5114 59.9031 10.3693 60.6133 10.3693C61.3235 10.3693 61.9315 10.5114 62.4371 10.7955C62.9428 11.0767 63.3306 11.4716 63.6005 11.9801C63.8704 12.4858 64.0053 13.0739 64.0053 13.7443C64.0053 14.4148 63.8704 15.0043 63.6005 15.5128C63.3306 16.0185 62.9428 16.4134 62.4371 16.6974C61.9315 16.9787 61.3235 17.1193 60.6133 17.1193ZM60.6303 15.3807C60.8292 15.3807 61.0011 15.3139 61.146 15.1804C61.2908 15.0469 61.4031 14.8565 61.4826 14.6094C61.5621 14.3622 61.6019 14.0682 61.6019 13.7273C61.6019 13.3835 61.5621 13.0895 61.4826 12.8452C61.4031 12.598 61.2908 12.4077 61.146 12.2741C61.0011 12.1406 60.8292 12.0739 60.6303 12.0739C60.4201 12.0739 60.2397 12.1406 60.0891 12.2741C59.9386 12.4077 59.8235 12.598 59.744 12.8452C59.6644 13.0895 59.6246 13.3835 59.6246 13.7273C59.6246 14.0682 59.6644 14.3622 59.744 14.6094C59.8235 14.8565 59.9386 15.0469 60.0891 15.1804C60.2397 15.3139 60.4201 15.3807 60.6303 15.3807ZM64.9599 17V10.4545H67.1928V11.6989H67.261C67.3974 11.2898 67.6303 10.9659 67.9599 10.7273C68.2894 10.4886 68.6815 10.3693 69.136 10.3693C69.5962 10.3693 69.9925 10.4915 70.3249 10.7358C70.6573 10.9773 70.8576 11.2983 70.9258 11.6989H70.994C71.1048 11.2983 71.3406 10.9773 71.7013 10.7358C72.0621 10.4915 72.4854 10.3693 72.9712 10.3693C73.5991 10.3693 74.1076 10.571 74.4968 10.9744C74.8888 11.3778 75.0849 11.9148 75.0849 12.5852V17H72.7326V13.1818C72.7326 12.8949 72.6602 12.6705 72.5153 12.5085C72.3704 12.3437 72.1758 12.2614 71.9315 12.2614C71.69 12.2614 71.4982 12.3437 71.3562 12.5085C71.217 12.6705 71.1474 12.8949 71.1474 13.1818V17H68.8974V13.1818C68.8974 12.8949 68.8249 12.6705 68.68 12.5085C68.5352 12.3437 68.3406 12.2614 68.0962 12.2614C67.9343 12.2614 67.7951 12.2983 67.6786 12.3722C67.5621 12.446 67.4712 12.5526 67.4059 12.6918C67.3434 12.8281 67.3121 12.9915 67.3121 13.1818V17H64.9599ZM78.6016 17V8.27273H84.7379V10.1818H80.9709V11.6818H84.3629V13.5909H80.9709V17H78.6016ZM85.6435 17V10.4545H87.9957V17H85.6435ZM86.8196 9.77273C86.5014 9.77273 86.2287 9.66761 86.0014 9.45739C85.7741 9.24716 85.6605 8.99432 85.6605 8.69886C85.6605 8.40341 85.7741 8.15057 86.0014 7.94034C86.2287 7.73011 86.5014 7.625 86.8196 7.625C87.1406 7.625 87.4134 7.73011 87.6378 7.94034C87.8651 8.15057 87.9787 8.40341 87.9787 8.69886C87.9787 8.99432 87.8651 9.24716 87.6378 9.45739C87.4134 9.66761 87.1406 9.77273 86.8196 9.77273ZM92.3306 17.1193C91.6317 17.1193 91.0295 16.9858 90.5238 16.7188C90.021 16.4489 89.6332 16.0625 89.3604 15.5597C89.0906 15.054 88.9556 14.4489 88.9556 13.7443C88.9556 13.0682 89.092 12.4773 89.3647 11.9716C89.6374 11.4659 90.0224 11.0724 90.5195 10.7912C91.0167 10.5099 91.6033 10.3693 92.2795 10.3693C92.7738 10.3693 93.2212 10.446 93.6218 10.5994C94.0224 10.7528 94.3647 10.9759 94.6488 11.2685C94.9329 11.5582 95.1516 11.9105 95.305 12.3253C95.4585 12.7401 95.5352 13.2074 95.5352 13.7273V14.2727H89.6886V12.9773H93.3704C93.3675 12.7898 93.3192 12.625 93.2255 12.483C93.1346 12.3381 93.011 12.2259 92.8548 12.1463C92.7013 12.0639 92.5266 12.0227 92.3306 12.0227C92.1403 12.0227 91.9656 12.0639 91.8065 12.1463C91.6474 12.2259 91.5195 12.3366 91.4229 12.4787C91.3292 12.6207 91.2795 12.7869 91.2738 12.9773V14.375C91.2738 14.5852 91.3178 14.7727 91.4059 14.9375C91.494 15.1023 91.6204 15.2315 91.7852 15.3253C91.9499 15.419 92.1488 15.4659 92.3817 15.4659C92.5437 15.4659 92.6914 15.4432 92.8249 15.3977C92.9613 15.3523 93.0778 15.2869 93.1744 15.2017C93.271 15.1136 93.342 15.0085 93.3874 14.8864H95.5352C95.4613 15.3409 95.2866 15.7358 95.011 16.071C94.7354 16.4034 94.3704 16.6619 93.9158 16.8466C93.4641 17.0284 92.9357 17.1193 92.3306 17.1193ZM98.8473 8.27273V17H96.495V8.27273H98.8473ZM102.415 17.0852C101.949 17.0852 101.52 16.9631 101.128 16.7188C100.739 16.4744 100.426 16.1037 100.191 15.6065C99.9577 15.1094 99.8413 14.483 99.8413 13.7273C99.8413 12.9375 99.9634 12.2955 100.208 11.8011C100.455 11.3068 100.773 10.9446 101.162 10.7145C101.554 10.4844 101.966 10.3693 102.398 10.3693C102.722 10.3693 103.006 10.4261 103.25 10.5398C103.495 10.6506 103.699 10.7997 103.864 10.9872C104.029 11.1719 104.154 11.375 104.239 11.5966H104.273V8.27273H106.625V17H104.29V15.9261H104.239C104.148 16.1477 104.017 16.3466 103.847 16.5227C103.679 16.696 103.475 16.8338 103.233 16.9361C102.995 17.0355 102.722 17.0852 102.415 17.0852ZM103.284 15.2784C103.5 15.2784 103.685 15.2159 103.838 15.0909C103.995 14.9631 104.114 14.7841 104.196 14.554C104.282 14.321 104.324 14.0455 104.324 13.7273C104.324 13.4034 104.282 13.1264 104.196 12.8963C104.114 12.6634 103.995 12.4858 103.838 12.3636C103.685 12.2386 103.5 12.1761 103.284 12.1761C103.069 12.1761 102.884 12.2386 102.73 12.3636C102.58 12.4858 102.463 12.6634 102.381 12.8963C102.301 13.1264 102.262 13.4034 102.262 13.7273C102.262 14.0511 102.301 14.3295 102.381 14.5625C102.463 14.7926 102.58 14.9702 102.73 15.0952C102.884 15.2173 103.069 15.2784 103.284 15.2784ZM113.763 12.5852H111.598C111.587 12.4517 111.54 12.3366 111.458 12.2401C111.375 12.1435 111.269 12.0696 111.138 12.0185C111.01 11.9645 110.868 11.9375 110.712 11.9375C110.51 11.9375 110.337 11.9744 110.192 12.0483C110.047 12.1222 109.976 12.2273 109.979 12.3636C109.976 12.4602 110.017 12.5497 110.103 12.6321C110.191 12.7145 110.36 12.7784 110.61 12.8239L111.939 13.0625C112.61 13.1847 113.108 13.3906 113.435 13.6804C113.765 13.9673 113.931 14.3523 113.934 14.8352C113.931 15.3011 113.792 15.706 113.516 16.0497C113.243 16.3906 112.87 16.6548 112.395 16.8423C111.924 17.027 111.385 17.1193 110.78 17.1193C109.78 17.1193 108.998 16.9148 108.432 16.5057C107.87 16.0966 107.556 15.5568 107.49 14.8864H109.826C109.857 15.0937 109.959 15.2543 110.132 15.3679C110.309 15.4787 110.53 15.5341 110.797 15.5341C111.013 15.5341 111.191 15.4972 111.33 15.4233C111.472 15.3494 111.544 15.2443 111.547 15.108C111.544 14.983 111.482 14.8835 111.36 14.8097C111.24 14.7358 111.053 14.6761 110.797 14.6307L109.638 14.4261C108.971 14.3097 108.471 14.0881 108.138 13.7614C107.806 13.4347 107.641 13.0142 107.644 12.5C107.641 12.0455 107.76 11.6605 108.002 11.3452C108.246 11.027 108.594 10.7855 109.046 10.6207C109.5 10.4531 110.039 10.3693 110.661 10.3693C111.607 10.3693 112.353 10.5653 112.898 10.9574C113.446 11.3494 113.735 11.892 113.763 12.5852Z" fill="black"/>
</svg>
